<?xml version="1.0" encoding="UTF-8"?>
<svg width="853px" height="725px" viewBox="0 0 853 725" version="1.1" xmlns="http://www.w3.org/2000/svg" xmlns:xlink="http://www.w3.org/1999/xlink">
    <!-- Generator: Sketch 42 (36781) - http://www.bohemiancoding.com/sketch -->
    <title>Slice</title>
    <desc>Created with Sketch.</desc>
    <defs></defs>
    <g id="Page-1" stroke="none" stroke-width="1" fill="none" fill-rule="evenodd">
        <g id="Screen_Shot_2017-01-26_at_7" transform="translate(107.000000, 42.000000)" fill-rule="nonzero" fill="#000000">
            <g id="Group" transform="translate(306.501090, 315.942675) scale(-1, 1) rotate(-180.000000) translate(-306.501090, -315.942675) translate(0.501090, 0.942675)">
                <path d="M287.68129,629.312102 C258.562398,627.535032 227.995913,621 201.605177,611.025478 C194.088828,608.159236 193.309355,607.872611 187.407629,605.350318 C166.139146,596.235669 143.478747,582.878981 123.76921,567.859873 C71.2661217,527.847134 31.7356948,470.006369 13.1396912,406.089172 C9.46503179,393.477707 5.9017257,378 4.50980926,368.541401 C-1.4475931,328.471338 -1.4475931,301.414013 4.50980926,261.343949 C6.01307902,251.369427 9.68773842,235.605096 13.5294278,222.649682 C22.1593097,193.528662 34.7422343,166.299363 51.4452316,140.388535 C63.1930064,122.273885 73.3818347,109.605096 89.6950954,92.7515924 C108.847866,72.9745223 123.991916,60.5923567 146.819346,46.0318471 C157.899001,38.9808917 175.659855,29.6369427 189.356312,23.7324841 C221.982834,9.68789809 260.789464,1.2611465 297.925795,0.171974522 C361.174478,-1.60509554 423.142598,16.8535032 476.369482,53.4267516 C508.439237,75.4968153 538.615985,106.566879 560.051499,139.700637 C579.594005,169.796178 593.401817,201.55414 602.198728,236.407643 C604.091735,244.089172 606.652861,256.242038 607.488011,261.917197 C609.659401,276.420382 610.049137,279.859873 611.106994,294.878981 C612.16485,309.382166 612.16485,320.503185 611.106994,335.006369 C610.049137,350.025478 609.659401,353.464968 607.488011,367.968153 C603.479292,394.853503 592.34396,429.878981 579.594005,455.675159 C563.559128,488.178344 546.911807,511.853503 522.080018,537.420382 C497.470936,562.700637 474.142416,580.184713 444.077021,595.77707 C431.883833,602.140127 430.380563,602.88535 423.643688,605.636943 C421.695005,606.43949 419.412262,607.471338 418.465758,607.872611 C415.292189,609.363057 401.150318,614.350318 393.689646,616.643312 C359.337148,627.191083 323.258674,631.547771 287.68129,629.312102 Z M336.788102,617.101911 C366.742144,613.719745 395.582652,605.980892 422.084741,594.229299 C478.652225,569.178344 526.478474,526.414013 558.325522,472.299363 C573.02416,447.305732 584.103815,420.305732 591.50881,391.471338 C592.733697,386.656051 593.568847,383.044586 595.294823,374.56051 C595.740236,372.267516 597.020799,364.414013 598.022979,357.936306 C601.697639,333.515924 601.697639,296.656051 598.022979,271.834395 C596.853769,264.152866 596.241326,260.312102 595.406176,256.184713 C594.960763,253.834395 594.34832,250.738854 594.069936,249.305732 C592.17693,239.617834 587.889827,224.598726 583.435695,211.757962 C565.674841,161.197452 535.219709,116.426752 495.021163,81.8598726 C457.383742,49.5286624 413.510536,27.6878981 365.572934,17.4267516 C358.223615,15.8789809 356.720345,15.5923567 346.364487,14.1019108 C321.532698,10.433121 290.465123,10.433121 265.633333,14.1019108 C255.388828,15.5923567 253.829882,15.8789809 246.424886,17.4267516 C130.004995,41.9044586 38.1385104,137.808917 16.3132607,257.617834 C12.5829246,278.082803 11.6920981,287.312102 11.3580381,309.496815 C11.0239782,330.764331 11.8034514,343.719745 14.5316076,362.235669 C19.3198002,394.738854 31.0118983,430.566879 46.2673025,459.171975 C74.3840145,511.910828 114.805268,553.528662 165.693733,582.248408 C170.927339,585.171975 185.73733,592.681529 186.349773,592.681529 C186.461126,592.681529 188.131426,593.426752 190.024432,594.286624 C196.872661,597.496815 209.232879,602.197452 217.194641,604.719745 C226.04723,607.471338 225.935876,607.414013 232.784105,609.248408 C247.03733,613.031847 264.408447,616.127389 278.160581,617.273885 C282.169301,617.617834 286.289373,618.019108 287.34723,618.133758 C292.413806,618.707006 329.32743,617.961783 336.788102,617.101911 Z" id="Shape"></path>
                <path d="M287.34723,591.133758 C286.289373,591.076433 282.670391,590.675159 279.274114,590.388535 C261.958674,588.66879 243.084287,584.770701 226.38129,579.43949 C218.252498,576.859873 205.89228,572.159236 200.602997,569.694268 C198.709991,568.77707 196.984015,568.031847 196.872661,568.031847 C196.705631,568.031847 193.643415,566.598726 190.080109,564.764331 C169.312716,554.503185 149.881562,541.547771 131.842325,525.898089 C124.43733,519.477707 105.451589,499.700637 99.1044505,491.789809 C79.506267,467.312102 64.1951862,440.082803 54.1177112,411.993631 C53.5052679,410.159236 52.4474114,407.292994 51.8906449,405.687898 C47.4365123,393.305732 42.0358765,370.490446 39.9201635,355.070064 C36.4125341,329.789809 36.4125341,300.095541 39.9201635,274.815287 C42.0358765,259.394904 47.4365123,236.579618 51.8906449,224.254777 C52.4474114,222.592357 53.5052679,219.726115 54.1177112,217.949045 C55.1755677,214.968153 57.3469573,209.407643 59.7967302,203.44586 C64.5849228,191.751592 74.2726612,173.579618 82.6241599,160.738854 C98.7147139,136.031847 121.152407,111.66879 144.536603,93.611465 C182.619437,64.1464968 227.21644,45.8025478 274.541599,40.0127389 C292.580836,37.8343949 319.416985,37.8343949 337.456222,40.0127389 C354.047866,42.0191083 370.361126,45.6305732 386.45168,50.7898089 C443.909991,69.3057325 493.295186,107.140127 528.53851,159.592357 C537.057039,172.318471 548.025341,193.242038 554.20545,208.605096 C568.068937,243.11465 574.638783,277.22293 574.638783,314.942675 C574.638783,367.165605 561.554768,414.859873 534.829973,460.261146 C524.696821,477.515924 512.113896,493.738854 496.190372,510.191083 C476.981926,529.910828 461.559491,542.121019 438.230972,555.993631 C434.222252,558.401274 415.737602,568.031847 415.180836,568.031847 C415.013806,568.031847 413.287829,568.77707 411.394823,569.694268 C402.987648,573.649682 385.004087,579.898089 372.810899,583.165605 C359.726885,586.605096 344.026067,589.356688 329.216076,590.675159 C320.920254,591.420382 293.360309,591.764331 287.34723,591.133758 Z M330.218256,579.496815 C332.835059,579.152866 337.233515,578.636943 339.961671,578.292994 C366.018347,575.082803 394.357766,566.197452 420.136058,553.127389 C458.998365,533.464968 492.515713,503.770701 517.848592,466.566879 C537.391099,437.847134 552.312443,401.904459 558.715259,368.254777 C560.998002,356.33121 561.276385,354.267516 563.058038,338.732484 C563.893188,330.993631 563.893188,298.433121 563.058038,291.324841 C562.668302,288.401274 562.111535,283.585987 561.777475,280.719745 C561.220708,275.216561 561.053678,274.184713 558.993642,263.063694 C553.87139,235.031847 542.012262,203.44586 527.035241,177.936306 C507.715441,144.974522 480.489555,115.566879 449.310627,94.0700637 C398.700545,59.2165605 337.400545,43.8535032 277.047048,51.0191083 C242.750227,55.0318471 211.404269,65.3503185 180.726431,82.6624204 C146.596639,101.866242 114.192825,132.535032 91.4767484,167.101911 C80.3970936,184.070064 67.647139,210.43949 61.8567666,228.66879 C55.1755677,249.592357 51.7236149,265.929936 49.2181653,287.713376 C47.9376022,299.292994 47.9376022,330.477707 49.2181653,342.171975 C50.4987284,353.407643 51.7236149,361.433121 53.4495913,369.687898 C62.6362398,413.656051 80.6198002,451.547771 108.847866,486.343949 C114.638238,493.509554 129.837965,509.44586 135.628338,514.547771 C155.337875,531.745223 168.978656,541.203822 189.634696,551.980892 C221.760127,568.77707 255.611535,578.121019 292.079746,580.299363 C298.259855,580.700637 325.430064,580.127389 330.218256,579.496815 Z" id="Shape"></path>
                <path d="M241.970754,537.248408 C234.454405,532.433121 204.55604,511.910828 203.442507,510.821656 L202.161944,509.617834 L202.161944,313.566879 C202.161944,172.089172 202.328974,117.11465 202.774387,116.140127 C203.331153,114.878981 207.117166,112.299363 214.689192,108 C225.935876,101.636943 242.69455,91.9490446 243.641054,91.3184713 C244.253497,90.8598726 245.756767,90.5159236 246.981653,90.5159236 C248.763306,90.5159236 249.988193,91.089172 253.384469,93.5541401 C255.667212,95.2165605 264.5198,101.464968 273.038329,107.369427 C281.556857,113.33121 288.794823,118.719745 289.184559,119.407643 C289.685649,120.324841 289.908356,130.929936 290.131063,162.401274 L290.409446,204.191083 L298.482561,209.292994 C309.562216,216.401274 328.32525,228.382166 337.734605,234.401274 C345.752044,239.56051 363.846957,251.082803 386.173297,265.356688 C393.244233,269.88535 402.486558,275.789809 406.77366,278.541401 C411.060763,281.292994 417.185195,285.191083 420.414441,287.254777 C449.644687,305.942675 454.377203,308.923567 471.0802,319.643312 C477.984105,324.057325 487.504814,330.133758 492.293006,333.229299 C497.081199,336.267516 501.591008,339.420382 502.314805,340.22293 L503.651045,341.713376 L503.651045,363.955414 C503.651045,384.764331 503.595368,386.254777 502.648865,387.343949 C502.036421,387.974522 498.528792,390.324841 494.854133,392.503185 C491.123797,394.738854 483.440418,399.267516 477.761399,402.707006 C472.08238,406.089172 463.730881,411.076433 459.109718,413.828025 C454.544233,416.579618 448.25277,420.305732 445.190554,422.140127 C442.128338,423.974522 434.890372,428.33121 429.044323,431.770701 C419.133878,437.675159 407.219074,444.783439 403.433061,447.076433 C402.542234,447.649682 397.865395,450.401274 393.132879,453.210191 C388.400363,456.019108 377.265032,462.66879 368.356767,468 C346.030427,481.356688 336.621072,486.974522 326.766303,492.821656 C322.089464,495.630573 311.009809,502.22293 302.101544,507.55414 C251.380109,537.878981 248.818983,539.369427 246.981653,539.369427 C245.979473,539.369427 243.919437,538.452229 241.970754,537.248408 Z M254.219619,523.261146 C254.553678,523.031847 258.729428,520.509554 263.573297,517.643312 C275.822162,510.363057 286.734787,503.828025 305.442144,492.649682 C314.350409,487.318471 325.374387,480.726115 329.939873,478.031847 C334.561035,475.280255 343.692007,469.834395 350.261853,465.878981 C375.539055,450.802548 388.12198,443.292994 396.195095,438.477707 C400.816258,435.726115 409.334787,430.624204 415.125159,427.184713 C420.971208,423.687898 432.10654,417.038217 439.901272,412.394904 C447.696004,407.751592 457.996185,401.617834 462.728701,398.751592 C467.461217,395.942675 474.810536,391.528662 479.041962,389.006369 C483.273388,386.541401 486.613987,384.191083 486.558311,383.904459 C486.446957,383.56051 479.097639,378.802548 470.24505,373.299363 C461.336785,367.796178 449.08792,360.171975 442.963488,356.33121 C436.839055,352.547771 420.915531,342.687898 407.60881,334.375796 C394.302089,326.121019 370.63951,311.44586 354.994369,301.757962 C321.087284,280.719745 321.477021,280.949045 319.361308,279.687898 C318.470481,279.11465 311.844959,275.044586 304.718347,270.573248 C297.591735,266.159236 291.578656,262.490446 291.300272,262.490446 C291.077566,262.490446 290.687829,270 290.465123,279.171975 C290.186739,292.414013 290.242416,296.025478 290.799183,296.770701 C291.188919,297.229299 293.638692,299.063694 296.255495,300.783439 C298.872298,302.56051 305.609173,307.089172 311.288193,310.929936 C326.65495,321.363057 347.255313,335.292994 356.497639,341.541401 C361.063124,344.579618 371.697366,351.745223 380.160218,357.535032 C388.678747,363.324841 399.758401,370.77707 404.824977,374.159236 C415.292189,381.095541 416.517075,382.299363 416.517075,385.22293 C416.517075,388.261146 415.013806,389.808917 408.27693,393.764331 C404.992007,395.770701 401.595731,397.77707 400.649228,398.350318 C399.758401,398.923567 395.861035,401.216561 392.019346,403.509554 C388.177657,405.802548 384.335967,408.095541 383.389464,408.66879 C379.492098,411.019108 363.679927,420.420382 354.159219,426.152866 C348.4802,429.535032 343.135241,432.745223 342.188738,433.318471 C340.852498,434.121019 328.547956,441.458599 321.031608,445.929936 C320.140781,446.503185 316.243415,448.796178 312.401726,451.089172 C308.560036,453.382166 304.718347,455.675159 303.771844,456.248408 C302.881017,456.821656 296.700908,460.490446 290.131063,464.388535 C283.561217,468.343949 274.151862,473.961783 269.252316,476.88535 C259.063488,482.961783 248.930336,489.038217 231.280836,499.585987 C224.432607,503.656051 218.864941,507.267516 218.864941,507.611465 C218.864941,508.184713 242.304814,524.464968 246.090827,526.528662 C247.315713,527.216561 247.816803,527.101911 250.544959,525.496815 C252.270936,524.522293 253.941235,523.490446 254.219619,523.261146 Z M220.256857,492.764331 C223.653134,490.757962 231.280836,486.229299 237.238238,482.617834 C243.19564,479.063694 251.101726,474.305732 254.776385,472.127389 C263.51762,466.910828 262.68247,467.426752 278.995731,457.681529 C286.790463,452.980892 296.144142,447.420382 299.763124,445.242038 C321.644051,432.11465 321.755404,432.057325 325.374387,429.936306 C326.32089,429.363057 332.668029,425.579618 339.404905,421.566879 C346.14178,417.55414 358.557675,410.101911 366.96485,405.057325 C375.372025,400.012739 383.166757,395.369427 384.280291,394.681529 C385.393824,394.050955 389.068483,391.872611 392.464759,389.866242 C395.805359,387.859873 398.867575,385.910828 399.201635,385.509554 C399.758401,384.878981 397.587012,383.159236 388.400363,376.910828 C382.108901,372.611465 376.485559,369.11465 375.984469,369.11465 C375.483379,369.11465 374.147139,369.687898 373.089282,370.375796 C371.474659,371.407643 324.539237,399.210191 317.969391,403.050955 C316.911535,403.681529 315.798002,404.426752 315.463942,404.656051 C315.185559,404.88535 313.515259,405.859873 311.844959,406.77707 C308.33733,408.783439 258.116985,438.477707 254.776385,440.598726 C248.373569,444.55414 245.645413,444.955414 242.972934,442.375796 L241.692371,441.171975 L241.692371,273.840764 C241.692371,107.541401 241.692371,106.566879 240.578837,106.566879 C239.465304,106.566879 215.747048,119.923567 213.798365,121.700637 C212.740509,122.56051 212.740509,126.917197 212.740509,309.095541 C212.740509,411.707006 212.907539,495.802548 213.130245,495.974522 C213.687012,496.605096 213.854042,496.547771 220.256857,492.764331 Z M259.397548,424.433121 C262.404087,422.656051 267.916076,419.388535 271.757766,417.095541 L278.717348,412.968153 L279.051408,332.426752 C279.274114,270.573248 279.496821,251.369427 280.053588,249.764331 C280.777384,247.471338 282.893097,245.866242 285.231517,245.866242 C286.901817,245.866242 287.458583,246.210191 317.691008,265.070064 C331.777203,273.840764 346.921253,283.242038 351.375386,285.993631 C358.000908,290.063694 387.1198,308.178344 434.055223,337.299363 C437.729882,339.592357 452.26149,348.592357 466.292007,357.305732 C480.656585,366.248408 492.0703,372.955414 492.348683,372.66879 C492.627066,372.382166 492.73842,366.420382 492.682743,359.369427 L492.515713,346.528662 L481.101998,339.191083 C457.049682,323.828025 441.070481,313.566879 413.733243,296.140127 C406.829337,291.726115 397.698365,285.878981 393.411262,283.127389 C389.12416,280.375796 379.213715,274.070064 371.418983,269.082803 C363.624251,264.095541 351.598093,256.414013 344.694187,252 C304.606994,226.318471 291.188919,217.77707 284.00663,213.305732 C275.655132,208.146497 262.348411,199.66242 257.226158,196.22293 C255.166122,194.904459 253.328792,193.929936 253.161762,194.101911 C252.493642,194.789809 252.772025,427.585987 253.440145,427.585987 C253.774205,427.585987 256.446685,426.152866 259.397548,424.433121 Z M308.33733,395.426752 C317.468302,390.038217 327.211717,384.305732 329.939873,382.643312 C332.723706,380.980892 341.631971,375.649682 349.872116,370.77707 C358.056585,365.904459 364.737784,361.77707 364.737784,361.490446 C364.737784,361.146497 341.464941,345.095541 319.082925,330.019108 C316.466122,328.299363 309.116803,323.312102 302.713987,319.012739 C296.311172,314.713376 290.854859,311.216561 290.632153,311.216561 C290.353769,311.216561 290.131063,331.910828 290.131063,358.22293 C290.131063,399.152866 290.242416,405.229299 290.966213,405.229299 C291.411626,405.229299 299.206358,400.815287 308.33733,395.426752 Z M278.884378,160.280255 L278.995731,124.968153 L266.1901,116.082803 C259.119164,111.152866 253.217439,107.140127 253.106085,107.140127 C252.939055,107.140127 252.827702,123.535032 252.827702,143.541401 L252.827702,179.942675 L254.108265,180.745223 C254.776385,181.146497 259.119164,183.898089 263.68465,186.821656 C268.305813,189.745223 273.316712,192.955414 274.819982,193.987261 C276.378928,195.076433 277.882198,195.821656 278.160581,195.764331 C278.494641,195.649682 278.773025,183.210191 278.884378,160.280255 Z" id="Shape"></path>
            </g>
        </g>
    </g>
</svg>